<svg width="44" height="16" viewBox="0 0 44 16" fill="none" xmlns="http://www.w3.org/2000/svg">
<mask id="path-1-outside-1_15_271" maskUnits="userSpaceOnUse" x="-0.115997" y="-0.691986" width="44" height="17" fill="black">
<rect fill="white" x="-0.115997" y="-0.691986" width="44" height="17"/>
<path d="M4.444 2.21201C6.588 2.21201 7.66 3.17201 7.66 5.09201C7.66 6.02001 7.388 6.72801 6.844 7.21601C6.308 7.69601 5.508 7.93601 4.444 7.93601H2.668V11.308H1V2.21201H4.444ZM5.968 5.05601C5.968 4.56001 5.84 4.20001 5.584 3.97601C5.336 3.75201 4.956 3.64001 4.444 3.64001H2.668V6.52001H4.444C4.964 6.52001 5.348 6.40001 5.596 6.16001C5.844 5.92001 5.968 5.55201 5.968 5.05601ZM10.8728 11.464C10.2168 11.464 9.73682 11.328 9.43282 11.056C9.12882 10.776 8.97682 10.348 8.97682 9.77201V1.15601H10.5848V9.24401C10.5848 9.53201 10.6328 9.73201 10.7288 9.84401C10.8248 9.95601 10.9968 10.012 11.2448 10.012C11.4928 10.012 11.7128 9.98801 11.9048 9.94001V11.332C11.5288 11.42 11.1848 11.464 10.8728 11.464ZM15.5004 4.60001C16.2924 4.60001 16.8924 4.72001 17.3004 4.96001C17.7164 5.19201 17.9924 5.50801 18.1284 5.90801C18.2644 6.30001 18.3324 6.79601 18.3324 7.39601V11.308H16.7244V10.696C16.4284 10.968 16.1364 11.164 15.8484 11.284C15.5684 11.404 15.2604 11.464 14.9244 11.464C14.2204 11.464 13.6524 11.264 13.2204 10.864C12.7964 10.456 12.5844 9.90001 12.5844 9.19601C12.5844 8.47601 12.8044 7.92001 13.2444 7.52801C13.6924 7.12801 14.3044 6.92801 15.0804 6.92801C15.7124 6.92801 16.2604 7.05201 16.7244 7.30001C16.7164 6.99601 16.6764 6.75201 16.6044 6.56801C16.5404 6.38401 16.4084 6.24401 16.2084 6.14801C16.0084 6.04401 15.7124 5.99201 15.3204 5.99201H14.1924V4.60001H15.5004ZM15.2124 10.18C15.7004 10.18 16.2044 9.95601 16.7244 9.50801V8.45201C16.3004 8.23601 15.8644 8.12801 15.4164 8.12801C15.0644 8.12801 14.7764 8.21201 14.5524 8.38001C14.3284 8.54001 14.2164 8.80401 14.2164 9.17201C14.2164 9.53201 14.3084 9.79201 14.4924 9.95201C14.6844 10.104 14.9244 10.18 15.2124 10.18ZM23.6385 4.45601C24.5025 4.45601 25.1425 4.67601 25.5585 5.11601C25.9825 5.55601 26.1945 6.27201 26.1945 7.26401V11.308H24.5865V7.26401C24.5865 6.79201 24.4905 6.44801 24.2985 6.23201C24.1145 6.00801 23.7905 5.89601 23.3265 5.89601C22.7825 5.89601 22.2345 6.13201 21.6825 6.60401V11.308H20.0745V4.60001H21.6825V5.22401C22.2905 4.71201 22.9425 4.45601 23.6385 4.45601ZM28.0549 1.62401H29.6629V3.43601H28.0549V1.62401ZM28.0549 4.60001H29.6629V11.308H28.0549V4.60001ZM34.1143 2.45201C33.8583 2.45201 33.6823 2.50801 33.5863 2.62001C33.4983 2.73201 33.4543 2.93201 33.4543 3.22001V4.60001H34.7743V6.04001H33.4543V11.308H31.8463V6.04001H31.0303V4.60001H31.8463V2.69201C31.8463 2.11601 31.9983 1.69201 32.3023 1.42001C32.6063 1.14001 33.0863 1.00001 33.7423 1.00001C34.0383 1.00001 34.3823 1.04401 34.7743 1.13201V2.52401C34.5823 2.47601 34.3623 2.45201 34.1143 2.45201ZM41.7354 4.60001L38.9154 12.376C38.7314 12.888 38.5354 13.28 38.3274 13.552C38.1274 13.832 37.8874 14.028 37.6074 14.14C37.3354 14.26 36.9874 14.32 36.5634 14.32C36.2194 14.32 35.9074 14.276 35.6274 14.188V12.784C35.8274 12.84 36.0594 12.868 36.3234 12.868C36.6274 12.868 36.8634 12.796 37.0314 12.652C37.2074 12.516 37.3714 12.248 37.5234 11.848L37.7274 11.308L35.3154 4.60001H36.9714L38.5074 9.13601L40.1634 4.60001H41.7354Z"/>
</mask>
<path d="M4.444 2.21201C6.588 2.21201 7.66 3.17201 7.66 5.09201C7.66 6.02001 7.388 6.72801 6.844 7.21601C6.308 7.69601 5.508 7.93601 4.444 7.93601H2.668V11.308H1V2.21201H4.444ZM5.968 5.05601C5.968 4.56001 5.84 4.20001 5.584 3.97601C5.336 3.75201 4.956 3.64001 4.444 3.64001H2.668V6.52001H4.444C4.964 6.52001 5.348 6.40001 5.596 6.16001C5.844 5.92001 5.968 5.55201 5.968 5.05601ZM10.8728 11.464C10.2168 11.464 9.73682 11.328 9.43282 11.056C9.12882 10.776 8.97682 10.348 8.97682 9.77201V1.15601H10.5848V9.24401C10.5848 9.53201 10.6328 9.73201 10.7288 9.84401C10.8248 9.95601 10.9968 10.012 11.2448 10.012C11.4928 10.012 11.7128 9.98801 11.9048 9.94001V11.332C11.5288 11.42 11.1848 11.464 10.8728 11.464ZM15.5004 4.60001C16.2924 4.60001 16.8924 4.72001 17.3004 4.96001C17.7164 5.19201 17.9924 5.50801 18.1284 5.90801C18.2644 6.30001 18.3324 6.79601 18.3324 7.39601V11.308H16.7244V10.696C16.4284 10.968 16.1364 11.164 15.8484 11.284C15.5684 11.404 15.2604 11.464 14.9244 11.464C14.2204 11.464 13.6524 11.264 13.2204 10.864C12.7964 10.456 12.5844 9.90001 12.5844 9.19601C12.5844 8.47601 12.8044 7.92001 13.2444 7.52801C13.6924 7.12801 14.3044 6.92801 15.0804 6.92801C15.7124 6.92801 16.2604 7.05201 16.7244 7.30001C16.7164 6.99601 16.6764 6.75201 16.6044 6.56801C16.5404 6.38401 16.4084 6.24401 16.2084 6.14801C16.0084 6.04401 15.7124 5.99201 15.3204 5.99201H14.1924V4.60001H15.5004ZM15.2124 10.18C15.7004 10.18 16.2044 9.95601 16.7244 9.50801V8.45201C16.3004 8.23601 15.8644 8.12801 15.4164 8.12801C15.0644 8.12801 14.7764 8.21201 14.5524 8.38001C14.3284 8.54001 14.2164 8.80401 14.2164 9.17201C14.2164 9.53201 14.3084 9.79201 14.4924 9.95201C14.6844 10.104 14.9244 10.18 15.2124 10.18ZM23.6385 4.45601C24.5025 4.45601 25.1425 4.67601 25.5585 5.11601C25.9825 5.55601 26.1945 6.27201 26.1945 7.26401V11.308H24.5865V7.26401C24.5865 6.79201 24.4905 6.44801 24.2985 6.23201C24.1145 6.00801 23.7905 5.89601 23.3265 5.89601C22.7825 5.89601 22.2345 6.13201 21.6825 6.60401V11.308H20.0745V4.60001H21.6825V5.22401C22.2905 4.71201 22.9425 4.45601 23.6385 4.45601ZM28.0549 1.62401H29.6629V3.43601H28.0549V1.62401ZM28.0549 4.60001H29.6629V11.308H28.0549V4.60001ZM34.1143 2.45201C33.8583 2.45201 33.6823 2.50801 33.5863 2.62001C33.4983 2.73201 33.4543 2.93201 33.4543 3.22001V4.60001H34.7743V6.04001H33.4543V11.308H31.8463V6.04001H31.0303V4.60001H31.8463V2.69201C31.8463 2.11601 31.9983 1.69201 32.3023 1.42001C32.6063 1.14001 33.0863 1.00001 33.7423 1.00001C34.0383 1.00001 34.3823 1.04401 34.7743 1.13201V2.52401C34.5823 2.47601 34.3623 2.45201 34.1143 2.45201ZM41.7354 4.60001L38.9154 12.376C38.7314 12.888 38.5354 13.28 38.3274 13.552C38.1274 13.832 37.8874 14.028 37.6074 14.14C37.3354 14.26 36.9874 14.32 36.5634 14.32C36.2194 14.32 35.9074 14.276 35.6274 14.188V12.784C35.8274 12.84 36.0594 12.868 36.3234 12.868C36.6274 12.868 36.8634 12.796 37.0314 12.652C37.2074 12.516 37.3714 12.248 37.5234 11.848L37.7274 11.308L35.3154 4.60001H36.9714L38.5074 9.13601L40.1634 4.60001H41.7354Z" fill="white"/>
<path d="M6.844 7.21601L7.51112 7.96096L7.51176 7.9604L6.844 7.21601ZM2.668 7.93601V6.93601H1.668V7.93601H2.668ZM2.668 11.308V12.308H3.668V11.308H2.668ZM1 11.308H2.71201e-06V12.308H1V11.308ZM1 2.21201V1.21201H2.71201e-06V2.21201H1ZM5.584 3.97601L4.91372 4.71812L4.91957 4.7234L4.9255 4.72859L5.584 3.97601ZM2.668 3.64001V2.64001H1.668V3.64001H2.668ZM2.668 6.52001H1.668V7.52001H2.668V6.52001ZM5.596 6.16001L4.90058 5.44141L4.90058 5.44141L5.596 6.16001ZM4.444 2.21201V3.21201C5.38741 3.21201 5.90821 3.42561 6.18888 3.67696C6.44856 3.90951 6.66 4.31644 6.66 5.09201H7.66H8.66C8.66 3.94758 8.33545 2.91452 7.52312 2.18706C6.7318 1.47841 5.6446 1.21201 4.444 1.21201V2.21201ZM7.66 5.09201H6.66C6.66 5.81792 6.45464 6.2219 6.17625 6.47163L6.844 7.21601L7.51176 7.9604C8.32137 7.23413 8.66 6.22211 8.66 5.09201H7.66ZM6.844 7.21601L6.17688 6.47106C5.89504 6.72346 5.37708 6.93601 4.444 6.93601V7.93601V8.93601C5.63893 8.93601 6.72097 8.66857 7.51112 7.96096L6.844 7.21601ZM4.444 7.93601V6.93601H2.668V7.93601V8.93601H4.444V7.93601ZM2.668 7.93601H1.668V11.308H2.668H3.668V7.93601H2.668ZM2.668 11.308V10.308H1V11.308V12.308H2.668V11.308ZM1 11.308H2V2.21201H1H2.71201e-06V11.308H1ZM1 2.21201V3.21201H4.444V2.21201V1.21201H1V2.21201ZM5.968 5.05601H6.968C6.968 4.40651 6.79974 3.71102 6.24251 3.22344L5.584 3.97601L4.9255 4.72859C4.90953 4.71462 4.9159 4.70996 4.92979 4.74902C4.94606 4.7948 4.968 4.88993 4.968 5.05601H5.968ZM5.584 3.97601L6.25429 3.23391C5.74603 2.77484 5.07645 2.64001 4.444 2.64001V3.64001V4.64001C4.83555 4.64001 4.92598 4.72919 4.91372 4.71812L5.584 3.97601ZM4.444 3.64001V2.64001H2.668V3.64001V4.64001H4.444V3.64001ZM2.668 3.64001H1.668V6.52001H2.668H3.668V3.64001H2.668ZM2.668 6.52001V7.52001H4.444V6.52001V5.52001H2.668V6.52001ZM4.444 6.52001V7.52001C5.09445 7.52001 5.78115 7.37243 6.29142 6.87862L5.596 6.16001L4.90058 5.44141C4.91485 5.4276 4.83356 5.52001 4.444 5.52001V6.52001ZM5.596 6.16001L6.29142 6.87862C6.80592 6.38071 6.968 5.70329 6.968 5.05601H5.968H4.968C4.968 5.22405 4.9466 5.32759 4.92735 5.3847C4.91812 5.41211 4.90992 5.42729 4.90575 5.43411C4.90361 5.43761 4.90214 5.43955 4.90148 5.44037C4.90113 5.44081 4.9009 5.44108 4.90078 5.4412C4.90067 5.44133 4.90061 5.44139 4.90058 5.44141L5.596 6.16001ZM9.43282 11.056L8.75534 11.7916L8.76064 11.7964L8.76602 11.8013L9.43282 11.056ZM8.97682 1.15601V0.156014H7.97682V1.15601H8.97682ZM10.5848 1.15601H11.5848V0.156014H10.5848V1.15601ZM10.7288 9.84401L11.4881 9.19322L11.4881 9.19322L10.7288 9.84401ZM11.9048 9.94001H12.9048V8.65924L11.6623 8.96987L11.9048 9.94001ZM11.9048 11.332L12.1327 12.3057L12.9048 12.125V11.332H11.9048ZM10.8728 11.464V10.464C10.3215 10.464 10.1368 10.3441 10.0996 10.3108L9.43282 11.056L8.76602 11.8013C9.33678 12.3119 10.1122 12.464 10.8728 12.464V11.464ZM9.43282 11.056L10.1103 10.3205C10.0826 10.2949 9.97682 10.1819 9.97682 9.77201H8.97682H7.97682C7.97682 10.5142 8.17507 11.2571 8.75534 11.7916L9.43282 11.056ZM8.97682 9.77201H9.97682V1.15601H8.97682H7.97682V9.77201H8.97682ZM8.97682 1.15601V2.15601H10.5848V1.15601V0.156014H8.97682V1.15601ZM10.5848 1.15601H9.58482V9.24401H10.5848H11.5848V1.15601H10.5848ZM10.5848 9.24401H9.58482C9.58482 9.5752 9.6262 10.0942 9.96956 10.4948L10.7288 9.84401L11.4881 9.19322C11.533 9.24564 11.5593 9.29314 11.5738 9.32446C11.588 9.35538 11.5928 9.37484 11.5932 9.37664C11.5937 9.37872 11.5913 9.36937 11.589 9.34563C11.5867 9.32218 11.5848 9.2888 11.5848 9.24401H10.5848ZM10.7288 9.84401L9.96956 10.4948C10.3524 10.9414 10.8968 11.012 11.2448 11.012V10.012V9.01201C11.1898 9.01201 11.1961 9.00503 11.2394 9.01914C11.2885 9.03514 11.3922 9.08134 11.4881 9.19322L10.7288 9.84401ZM11.2448 10.012V11.012C11.555 11.012 11.859 10.9822 12.1474 10.9102L11.9048 9.94001L11.6623 8.96987C11.5666 8.99379 11.4307 9.01201 11.2448 9.01201V10.012ZM11.9048 9.94001H10.9048V11.332H11.9048H12.9048V9.94001H11.9048ZM11.9048 11.332L11.6769 10.3583C11.3588 10.4328 11.0925 10.464 10.8728 10.464V11.464V12.464C11.2771 12.464 11.6989 12.4072 12.1327 12.3057L11.9048 11.332ZM17.3004 4.96001L16.7934 5.82195L16.8033 5.82778L16.8133 5.83338L17.3004 4.96001ZM18.1284 5.90801L17.1816 6.22992L17.1837 6.23579L18.1284 5.90801ZM18.3324 11.308V12.308H19.3324V11.308H18.3324ZM16.7244 11.308H15.7244V12.308H16.7244V11.308ZM16.7244 10.696H17.7244V8.419L16.0478 9.95969L16.7244 10.696ZM15.8484 11.284L15.4638 10.3609L15.4545 10.3649L15.8484 11.284ZM13.2204 10.864L12.527 11.5846L12.534 11.5912L12.541 11.5978L13.2204 10.864ZM13.2444 7.52801L13.9096 8.27467L13.9104 8.27395L13.2444 7.52801ZM16.7244 7.30001L16.253 8.18195L17.7693 8.99236L17.7241 7.27371L16.7244 7.30001ZM16.6044 6.56801L15.6599 6.89653L15.6662 6.9146L15.6732 6.93241L16.6044 6.56801ZM16.2084 6.14801L15.7471 7.03523L15.7613 7.04261L15.7757 7.04954L16.2084 6.14801ZM14.1924 5.99201H13.1924V6.99201H14.1924V5.99201ZM14.1924 4.60001V3.60001H13.1924V4.60001H14.1924ZM16.7244 9.50801L17.3771 10.2656L17.7244 9.96642V9.50801H16.7244ZM16.7244 8.45201H17.7244V7.83916L17.1783 7.56097L16.7244 8.45201ZM14.5524 8.38001L15.1336 9.19375L15.1431 9.18699L15.1524 9.18001L14.5524 8.38001ZM14.4924 9.95201L13.8362 10.7066L13.8536 10.7217L13.8717 10.7361L14.4924 9.95201ZM15.5004 4.60001V5.60001C16.2205 5.60001 16.6103 5.71425 16.7934 5.82195L17.3004 4.96001L17.8074 4.09808C17.1745 3.72578 16.3643 3.60001 15.5004 3.60001V4.60001ZM17.3004 4.96001L16.8133 5.83338C17.0427 5.9613 17.1356 6.09452 17.1816 6.22992L18.1284 5.90801L19.0752 5.58611C18.8492 4.92151 18.3901 4.42273 17.7875 4.08665L17.3004 4.96001ZM18.1284 5.90801L17.1837 6.23579C17.2707 6.48671 17.3324 6.86226 17.3324 7.39601H18.3324H19.3324C19.3324 6.72976 19.2581 6.11332 19.0732 5.58024L18.1284 5.90801ZM18.3324 7.39601H17.3324V11.308H18.3324H19.3324V7.39601H18.3324ZM18.3324 11.308V10.308H16.7244V11.308V12.308H18.3324V11.308ZM16.7244 11.308H17.7244V10.696H16.7244H15.7244V11.308H16.7244ZM16.7244 10.696L16.0478 9.95969C15.814 10.1745 15.6184 10.2965 15.4638 10.3609L15.8484 11.284L16.233 12.2071C16.6545 12.0315 17.0428 11.7615 17.401 11.4323L16.7244 10.696ZM15.8484 11.284L15.4545 10.3649C15.3112 10.4263 15.139 10.464 14.9244 10.464V11.464V12.464C15.3818 12.464 15.8256 12.3818 16.2423 12.2032L15.8484 11.284ZM14.9244 11.464V10.464C14.4201 10.464 14.1119 10.3266 13.8998 10.1303L13.2204 10.864L12.541 11.5978C13.1929 12.2014 14.0207 12.464 14.9244 12.464V11.464ZM13.2204 10.864L13.9138 10.1434C13.7236 9.96046 13.5844 9.68569 13.5844 9.19601H12.5844H11.5844C11.5844 10.1143 11.8692 10.9516 12.527 11.5846L13.2204 10.864ZM12.5844 9.19601H13.5844C13.5844 8.69265 13.729 8.43563 13.9096 8.27467L13.2444 7.52801L12.5792 6.78135C11.8799 7.4044 11.5844 8.25937 11.5844 9.19601H12.5844ZM13.2444 7.52801L13.9104 8.27395C14.1268 8.08078 14.4764 7.92801 15.0804 7.92801V6.92801V5.92801C14.1324 5.92801 13.258 6.17524 12.5784 6.78208L13.2444 7.52801ZM15.0804 6.92801V7.92801C15.5809 7.92801 15.9605 8.02562 16.253 8.18195L16.7244 7.30001L17.1958 6.41808C16.5603 6.07841 15.8439 5.92801 15.0804 5.92801V6.92801ZM16.7244 7.30001L17.7241 7.27371C17.7145 6.9095 17.6662 6.53736 17.5357 6.20361L16.6044 6.56801L15.6732 6.93241C15.6866 6.96667 15.7183 7.08252 15.7248 7.32632L16.7244 7.30001ZM16.6044 6.56801L17.5489 6.23949C17.385 5.76836 17.0449 5.44032 16.6411 5.24649L16.2084 6.14801L15.7757 7.04954C15.7817 7.05243 15.7599 7.04291 15.7298 7.01103C15.6979 6.97717 15.6736 6.93594 15.6599 6.89653L16.6044 6.56801ZM16.2084 6.14801L16.6698 5.2608C16.2579 5.04664 15.7705 4.99201 15.3204 4.99201V5.99201V6.99201C15.4748 6.99201 15.5867 7.00246 15.6634 7.01593C15.7422 7.02977 15.7621 7.04303 15.7471 7.03523L16.2084 6.14801ZM15.3204 5.99201V4.99201H14.1924V5.99201V6.99201H15.3204V5.99201ZM14.1924 5.99201H15.1924V4.60001H14.1924H13.1924V5.99201H14.1924ZM14.1924 4.60001V5.60001H15.5004V4.60001V3.60001H14.1924V4.60001ZM15.2124 10.18V11.18C16.0215 11.18 16.7488 10.807 17.3771 10.2656L16.7244 9.50801L16.0717 8.75041C15.6601 9.10505 15.3793 9.18001 15.2124 9.18001V10.18ZM16.7244 9.50801H17.7244V8.45201H16.7244H15.7244V9.50801H16.7244ZM16.7244 8.45201L17.1783 7.56097C16.6227 7.27792 16.032 7.12801 15.4164 7.12801V8.12801V9.12801C15.6969 9.12801 15.9781 9.1941 16.2705 9.34305L16.7244 8.45201ZM15.4164 8.12801V7.12801C14.9044 7.12801 14.3897 7.25201 13.9524 7.58001L14.5524 8.38001L15.1524 9.18001C15.1631 9.17201 15.2244 9.12801 15.4164 9.12801V8.12801ZM14.5524 8.38001L13.9712 7.56628C13.4006 7.97383 13.2164 8.59998 13.2164 9.17201H14.2164H15.2164C15.2164 9.08577 15.23 9.0674 15.221 9.08856C15.216 9.10024 15.2062 9.11914 15.1892 9.1406C15.172 9.16227 15.1525 9.1803 15.1336 9.19375L14.5524 8.38001ZM14.2164 9.17201H13.2164C13.2164 9.68123 13.3465 10.2808 13.8362 10.7066L14.4924 9.95201L15.1486 9.19741C15.1736 9.21918 15.1932 9.24258 15.2074 9.26409C15.2211 9.28506 15.2269 9.29983 15.2281 9.30344C15.2293 9.30661 15.2261 9.29881 15.2228 9.27648C15.2195 9.2541 15.2164 9.21995 15.2164 9.17201H14.2164ZM14.4924 9.95201L13.8717 10.7361C14.2703 11.0516 14.7404 11.18 15.2124 11.18V10.18V9.18001C15.1564 9.18001 15.1278 9.17266 15.1183 9.16967C15.1135 9.16814 15.1118 9.16718 15.1122 9.16738C15.1126 9.16761 15.1131 9.16797 15.1131 9.16797L14.4924 9.95201ZM25.5585 5.11601L24.8318 5.80306L24.8384 5.80991L25.5585 5.11601ZM26.1945 11.308V12.308H27.1945V11.308H26.1945ZM24.5865 11.308H23.5865V12.308H24.5865V11.308ZM24.2985 6.23201L23.5257 6.86675L23.5381 6.88181L23.5511 6.89638L24.2985 6.23201ZM21.6825 6.60401L21.0326 5.84398L20.6825 6.14335V6.60401H21.6825ZM21.6825 11.308V12.308H22.6825V11.308H21.6825ZM20.0745 11.308H19.0745V12.308H20.0745V11.308ZM20.0745 4.60001V3.60001H19.0745V4.60001H20.0745ZM21.6825 4.60001H22.6825V3.60001H21.6825V4.60001ZM21.6825 5.22401H20.6825V7.37346L22.3266 5.98892L21.6825 5.22401ZM23.6385 4.45601V5.45601C24.3468 5.45601 24.6734 5.63551 24.8318 5.80302L25.5585 5.11601L26.2851 4.429C25.6115 3.71652 24.6581 3.45601 23.6385 3.45601V4.45601ZM25.5585 5.11601L24.8384 5.80991C24.9989 5.97646 25.1945 6.37735 25.1945 7.26401H26.1945H27.1945C27.1945 6.16668 26.9661 5.13557 26.2785 4.42212L25.5585 5.11601ZM26.1945 7.26401H25.1945V11.308H26.1945H27.1945V7.26401H26.1945ZM26.1945 11.308V10.308H24.5865V11.308V12.308H26.1945V11.308ZM24.5865 11.308H25.5865V7.26401H24.5865H23.5865V11.308H24.5865ZM24.5865 7.26401H25.5865C25.5865 6.69256 25.4765 6.05212 25.0459 5.56765L24.2985 6.23201L23.5511 6.89638C23.525 6.86703 23.5347 6.86154 23.5513 6.92081C23.5685 6.98242 23.5865 7.09158 23.5865 7.26401H24.5865ZM24.2985 6.23201L25.0712 5.59727C24.6074 5.03259 23.9112 4.89601 23.3265 4.89601V5.89601V6.89601C23.4839 6.89601 23.5637 6.91577 23.5908 6.92514C23.6105 6.93196 23.5708 6.92162 23.5257 6.86675L24.2985 6.23201ZM23.3265 5.89601V4.89601C22.4744 4.89601 21.7044 5.26949 21.0326 5.84398L21.6825 6.60401L22.3324 7.36405C22.7645 6.99454 23.0906 6.89601 23.3265 6.89601V5.89601ZM21.6825 6.60401H20.6825V11.308H21.6825H22.6825V6.60401H21.6825ZM21.6825 11.308V10.308H20.0745V11.308V12.308H21.6825V11.308ZM20.0745 11.308H21.0745V4.60001H20.0745H19.0745V11.308H20.0745ZM20.0745 4.60001V5.60001H21.6825V4.60001V3.60001H20.0745V4.60001ZM21.6825 4.60001H20.6825V5.22401H21.6825H22.6825V4.60001H21.6825ZM21.6825 5.22401L22.3266 5.98892C22.7815 5.6059 23.2114 5.45601 23.6385 5.45601V4.45601V3.45601C22.6736 3.45601 21.7995 3.81813 21.0383 4.4591L21.6825 5.22401ZM28.0549 1.62401V0.624013H27.0549V1.62401H28.0549ZM29.6629 1.62401H30.6629V0.624013H29.6629V1.62401ZM29.6629 3.43601V4.43601H30.6629V3.43601H29.6629ZM28.0549 3.43601H27.0549V4.43601H28.0549V3.43601ZM28.0549 4.60001V3.60001H27.0549V4.60001H28.0549ZM29.6629 4.60001H30.6629V3.60001H29.6629V4.60001ZM29.6629 11.308V12.308H30.6629V11.308H29.6629ZM28.0549 11.308H27.0549V12.308H28.0549V11.308ZM28.0549 1.62401V2.62401H29.6629V1.62401V0.624013H28.0549V1.62401ZM29.6629 1.62401H28.6629V3.43601H29.6629H30.6629V1.62401H29.6629ZM29.6629 3.43601V2.43601H28.0549V3.43601V4.43601H29.6629V3.43601ZM28.0549 3.43601H29.0549V1.62401H28.0549H27.0549V3.43601H28.0549ZM28.0549 4.60001V5.60001H29.6629V4.60001V3.60001H28.0549V4.60001ZM29.6629 4.60001H28.6629V11.308H29.6629H30.6629V4.60001H29.6629ZM29.6629 11.308V10.308H28.0549V11.308V12.308H29.6629V11.308ZM28.0549 11.308H29.0549V4.60001H28.0549H27.0549V11.308H28.0549ZM33.5863 2.62001L32.827 1.96922L32.8131 1.98542L32.8 2.00219L33.5863 2.62001ZM33.4543 4.60001H32.4543V5.60001H33.4543V4.60001ZM34.7743 4.60001H35.7743V3.60001H34.7743V4.60001ZM34.7743 6.04001V7.04001H35.7743V6.04001H34.7743ZM33.4543 6.04001V5.04001H32.4543V6.04001H33.4543ZM33.4543 11.308V12.308H34.4543V11.308H33.4543ZM31.8463 11.308H30.8463V12.308H31.8463V11.308ZM31.8463 6.04001H32.8463V5.04001H31.8463V6.04001ZM31.0303 6.04001H30.0303V7.04001H31.0303V6.04001ZM31.0303 4.60001V3.60001H30.0303V4.60001H31.0303ZM31.8463 4.60001V5.60001H32.8463V4.60001H31.8463ZM32.3023 1.42001L32.9691 2.16525L32.9745 2.16044L32.9798 2.15556L32.3023 1.42001ZM34.7743 1.13201H35.7743V0.331615L34.9933 0.156297L34.7743 1.13201ZM34.7743 2.52401L34.5317 3.49416L35.7743 3.80479V2.52401H34.7743ZM34.1143 2.45201V1.45201C33.7706 1.45201 33.2145 1.51714 32.827 1.96922L33.5863 2.62001L34.3455 3.2708C34.2455 3.38756 34.1383 3.43269 34.0935 3.44694C34.0538 3.45958 34.0525 3.45201 34.1143 3.45201V2.45201ZM33.5863 2.62001L32.8 2.00219C32.4893 2.39754 32.4543 2.89947 32.4543 3.22001H33.4543H34.4543C34.4543 3.17295 34.4561 3.13682 34.4585 3.11031C34.4609 3.08349 34.4636 3.07057 34.4639 3.06888C34.4644 3.06678 34.4612 3.08249 34.4495 3.11015C34.4378 3.13792 34.4146 3.18439 34.3726 3.23783L33.5863 2.62001ZM33.4543 3.22001H32.4543V4.60001H33.4543H34.4543V3.22001H33.4543ZM33.4543 4.60001V5.60001H34.7743V4.60001V3.60001H33.4543V4.60001ZM34.7743 4.60001H33.7743V6.04001H34.7743H35.7743V4.60001H34.7743ZM34.7743 6.04001V5.04001H33.4543V6.04001V7.04001H34.7743V6.04001ZM33.4543 6.04001H32.4543V11.308H33.4543H34.4543V6.04001H33.4543ZM33.4543 11.308V10.308H31.8463V11.308V12.308H33.4543V11.308ZM31.8463 11.308H32.8463V6.04001H31.8463H30.8463V11.308H31.8463ZM31.8463 6.04001V5.04001H31.0303V6.04001V7.04001H31.8463V6.04001ZM31.0303 6.04001H32.0303V4.60001H31.0303H30.0303V6.04001H31.0303ZM31.0303 4.60001V5.60001H31.8463V4.60001V3.60001H31.0303V4.60001ZM31.8463 4.60001H32.8463V2.69201H31.8463H30.8463V4.60001H31.8463ZM31.8463 2.69201H32.8463C32.8463 2.2798 32.9529 2.17971 32.9691 2.16525L32.3023 1.42001L31.6355 0.674772C31.0436 1.20432 30.8463 1.95223 30.8463 2.69201H31.8463ZM32.3023 1.42001L32.9798 2.15556C33.0167 2.1215 33.1967 2.00001 33.7423 2.00001V1.00001V1.35899e-05C32.9759 1.35899e-05 32.1958 0.158528 31.6248 0.684468L32.3023 1.42001ZM33.7423 1.00001V2.00001C33.9438 2.00001 34.2115 2.03056 34.5552 2.10773L34.7743 1.13201L34.9933 0.156297C34.5531 0.0574684 34.1328 1.35899e-05 33.7423 1.35899e-05V1.00001ZM34.7743 1.13201H33.7743V2.52401H34.7743H35.7743V1.13201H34.7743ZM34.7743 2.52401L35.0168 1.55387C34.7285 1.48179 34.4244 1.45201 34.1143 1.45201V2.45201V3.45201C34.3001 3.45201 34.4361 3.47024 34.5317 3.49416L34.7743 2.52401ZM41.7354 4.60001L42.6755 4.94094L43.1618 3.60001H41.7354V4.60001ZM38.9154 12.376L37.9753 12.0351L37.9743 12.0378L38.9154 12.376ZM38.3274 13.552L37.5331 12.9446L37.5232 12.9575L37.5137 12.9708L38.3274 13.552ZM37.6074 14.14L37.236 13.2115L37.2198 13.218L37.2038 13.2251L37.6074 14.14ZM35.6274 14.188H34.6274V14.922L35.3276 15.142L35.6274 14.188ZM35.6274 12.784L35.897 11.8211L34.6274 11.4656V12.784H35.6274ZM37.0314 12.652L36.42 11.8607L36.3999 11.8762L36.3806 11.8928L37.0314 12.652ZM37.5234 11.848L38.4582 12.2032L38.4589 12.2014L37.5234 11.848ZM37.7274 11.308L38.6629 11.6614L38.7932 11.3166L38.6684 10.9697L37.7274 11.308ZM35.3154 4.60001V3.60001H33.8932L34.3744 4.93838L35.3154 4.60001ZM36.9714 4.60001L37.9186 4.27928L37.6886 3.60001H36.9714V4.60001ZM38.5074 9.13601L37.5602 9.45675L38.4719 12.1491L39.4468 9.47895L38.5074 9.13601ZM40.1634 4.60001V3.60001H39.4639L39.2241 4.25707L40.1634 4.60001ZM41.7354 4.60001L40.7953 4.25909L37.9753 12.0351L38.9154 12.376L39.8555 12.7169L42.6755 4.94094L41.7354 4.60001ZM38.9154 12.376L37.9743 12.0378C37.8072 12.5029 37.653 12.7877 37.5331 12.9446L38.3274 13.552L39.1218 14.1595C39.4178 13.7723 39.6556 13.2731 39.8565 12.7142L38.9154 12.376ZM38.3274 13.552L37.5137 12.9708C37.4088 13.1176 37.3143 13.1802 37.236 13.2115L37.6074 14.14L37.9788 15.0685C38.4605 14.8758 38.846 14.5464 39.1411 14.1333L38.3274 13.552ZM37.6074 14.14L37.2038 13.2251C37.101 13.2704 36.9033 13.32 36.5634 13.32V14.32V15.32C37.0716 15.32 37.5698 15.2496 38.011 15.0549L37.6074 14.14ZM36.5634 14.32V13.32C36.3041 13.32 36.0952 13.2868 35.9272 13.234L35.6274 14.188L35.3276 15.142C35.7196 15.2652 36.1348 15.32 36.5634 15.32V14.32ZM35.6274 14.188H36.6274V12.784H35.6274H34.6274V14.188H35.6274ZM35.6274 12.784L35.3578 13.747C35.6655 13.8331 35.9916 13.868 36.3234 13.868V12.868V11.868C36.1272 11.868 35.9893 11.8469 35.897 11.8211L35.6274 12.784ZM36.3234 12.868V13.868C36.7769 13.868 37.2751 13.7602 37.6822 13.4113L37.0314 12.652L36.3806 11.8928C36.3957 11.8799 36.4099 11.8707 36.4212 11.8646C36.4322 11.8587 36.4382 11.8571 36.4366 11.8575C36.4321 11.8589 36.3985 11.868 36.3234 11.868V12.868ZM37.0314 12.652L37.6429 13.4433C38.0467 13.1312 38.2912 12.6426 38.4582 12.2032L37.5234 11.848L36.5886 11.4928C36.5273 11.6541 36.4738 11.761 36.4334 11.827C36.3908 11.8968 36.3809 11.8909 36.42 11.8607L37.0314 12.652ZM37.5234 11.848L38.4589 12.2014L38.6629 11.6614L37.7274 11.308L36.7919 10.9546L36.5879 11.4946L37.5234 11.848ZM37.7274 11.308L38.6684 10.9697L36.2564 4.26165L35.3154 4.60001L34.3744 4.93838L36.7864 11.6464L37.7274 11.308ZM35.3154 4.60001V5.60001H36.9714V4.60001V3.60001H35.3154V4.60001ZM36.9714 4.60001L36.0242 4.92075L37.5602 9.45675L38.5074 9.13601L39.4546 8.81528L37.9186 4.27928L36.9714 4.60001ZM38.5074 9.13601L39.4468 9.47895L41.1028 4.94295L40.1634 4.60001L39.2241 4.25707L37.5681 8.79307L38.5074 9.13601ZM40.1634 4.60001V5.60001H41.7354V4.60001V3.60001H40.1634V4.60001Z" fill="black" mask="url(#path-1-outside-1_15_271)"/>
</svg>
