<svg width="18" height="18" viewBox="0 0 18 18" fill="none" xmlns="http://www.w3.org/2000/svg">
<mask id="path-1-inside-1_1_155" fill="white">
<path d="M9 0C10.1046 0 11 0.895431 11 2V7H16C17.1046 7 18 7.89543 18 9C18 10.1046 17.1046 11 16 11H11V16C11 17.1046 10.1046 18 9 18C7.89543 18 7 17.1046 7 16V11H2C0.895431 11 0 10.1046 0 9C0 7.89543 0.895431 7 2 7H7V2C7 0.895431 7.89543 0 9 0Z"/>
</mask>
<path d="M11 2L12 2L11 2ZM11 7H10V8H11V7ZM16 11L16 12L16 11ZM11 11V10H10V11H11ZM7 16L6 16L7 16ZM7 11H8V10H7V11ZM2 7L2 6L2 7ZM7 7V8H8V7H7ZM9 0V1C9.55228 1 10 1.44772 10 2L11 2L12 2C12 0.343146 10.6569 -1 9 -1V0ZM11 2H10V7H11H12V2H11ZM11 7V8H16V7V6H11V7ZM16 7V8C16.5523 8 17 8.44772 17 9H18H19C19 7.34315 17.6569 6 16 6V7ZM18 9H17C17 9.55228 16.5523 10 16 10L16 11L16 12C17.6569 12 19 10.6569 19 9H18ZM16 11V10H11V11V12H16V11ZM11 11H10V16H11H12V11H11ZM11 16H10C10 16.5523 9.55228 17 9 17V18V19C10.6569 19 12 17.6569 12 16H11ZM9 18V17C8.44772 17 8 16.5523 8 16L7 16L6 16C6 17.6569 7.34315 19 9 19V18ZM7 16H8V11H7H6V16H7ZM7 11V10H2V11V12H7V11ZM2 11V10C1.44772 10 1 9.55228 1 9H0H-1C-1 10.6569 0.343146 12 2 12V11ZM0 9H1C1 8.44772 1.44772 8 2 8L2 7L2 6C0.343146 6 -1 7.34315 -1 9H0ZM2 7V8H7V7V6H2V7ZM7 7H8V2H7H6V7H7ZM7 2H8C8 1.44772 8.44772 1 9 1V0V-1C7.34315 -1 6 0.343146 6 2H7Z" fill="#094574" mask="url(#path-1-inside-1_1_155)"/>
</svg>
