<svg width="24" height="13" viewBox="0 0 24 13" fill="none" xmlns="http://www.w3.org/2000/svg">
<path d="M19.3848 7.62598C21.9334 7.62614 23.9996 9.64426 24 12.1328H17.46C17.5104 12.4149 17.5391 12.7044 17.5391 13H6.46191C6.46193 12.7044 6.48957 12.4149 6.54004 12.1328H0C0.000382302 9.64422 2.06653 7.62606 4.61523 7.62598C6.04177 7.62598 7.31651 8.25901 8.16309 9.25195C9.15846 8.35349 10.5103 7.7999 12 7.7998C13.4895 7.7999 14.8405 8.35375 15.8359 9.25195C16.6825 8.25883 17.9581 7.62602 19.3848 7.62598ZM19.1963 8.63086C18.0989 8.68519 17.1422 9.21243 16.5205 9.99707C16.7842 10.3463 17.0026 10.7272 17.1689 11.1328H22.8496C22.4078 9.69472 21.0382 8.62611 19.3848 8.62598L19.1963 8.63086ZM4.42676 8.63086C2.85826 8.70851 1.57536 9.74975 1.15039 11.1328H6.83105C6.99731 10.7274 7.21503 10.3462 7.47852 9.99707C6.82142 9.1679 5.79104 8.62598 4.61523 8.62598L4.42676 8.63086ZM12.1895 0.00488281C14.1406 0.0975154 15.6924 1.6119 15.6924 3.4668L15.6875 3.64551C15.5884 5.47696 13.9753 6.93356 12 6.93359L11.8096 6.92871C9.92196 6.83867 8.40843 5.41776 8.3125 3.64551L8.30762 3.4668C8.30762 1.55223 9.96083 3.82317e-05 12 0L12.1895 0.00488281ZM4.77344 0.870117C6.39899 0.950622 7.69214 2.26388 7.69238 3.87109L7.6875 4.02539C7.60501 5.6127 6.26131 6.87488 4.61523 6.875L4.45703 6.87109C2.88378 6.7932 1.6218 5.56157 1.54199 4.02539L1.53809 3.87109C1.53834 2.21212 2.91623 0.866409 4.61523 0.866211L4.77344 0.870117ZM19.543 0.870117C21.1684 0.950758 22.4617 2.26397 22.4619 3.87109L22.457 4.02539C22.3745 5.6126 21.0307 6.87473 19.3848 6.875L19.2266 6.87109C17.6533 6.79321 16.3913 5.56158 16.3115 4.02539L16.3076 3.87109C16.3079 2.21212 17.6858 0.866409 19.3848 0.866211L19.543 0.870117ZM12 1C10.4528 1.00004 9.30762 2.16298 9.30762 3.4668C9.30769 4.77056 10.4528 5.93356 12 5.93359C13.5472 5.93356 14.6923 4.77056 14.6924 3.4668C14.6924 2.16298 13.5472 1.00004 12 1ZM4.61523 1.86621C3.44592 1.86641 2.53834 2.78672 2.53809 3.87109C2.53833 4.95547 3.44592 5.8748 4.61523 5.875C5.78463 5.87488 6.69214 4.95552 6.69238 3.87109C6.69213 2.78667 5.78462 1.86633 4.61523 1.86621ZM19.3848 1.86621C18.2155 1.86641 17.3079 2.78672 17.3076 3.87109C17.3079 4.95547 18.2154 5.8748 19.3848 5.875C20.554 5.87472 21.4617 4.95543 21.4619 3.87109C21.4617 2.78677 20.554 1.86649 19.3848 1.86621Z" fill="#094574"/>
</svg>
