<svg width="24" height="19" viewBox="0 0 24 19" fill="none" xmlns="http://www.w3.org/2000/svg">
<path d="M10.9697 0.285301C11.6033 -0.0950635 12.3957 -0.0951303 13.0293 0.285301L23.0254 6.28921C24.7637 7.33334 24.0237 10.0036 21.9961 10.0041H21.001V17.0031L20.9902 17.2072C20.8948 18.1487 20.1465 18.8968 19.2051 18.9923L19.001 19.0031H14.001V13.0031H10.001V19.0031H5.00097L4.79687 18.9923C3.85532 18.8969 3.10717 18.1487 3.01171 17.2072L3.00097 17.0031V10.0041H2.00293C-0.024588 10.0035 -0.764642 7.3333 0.973629 6.28921L10.9697 0.285301ZM12.5146 1.14272C12.1979 0.952588 11.8011 0.952682 11.4844 1.14272L1.48828 7.14663C0.646483 7.65244 0.967633 8.92117 1.91015 9.00014L2.00293 9.00405H3.00097V9.00307H4.00097V17.0031C4.00097 17.5554 4.44869 18.0031 5.00097 18.0031H9.00097V13.0031C9.00104 12.4508 9.44873 12.0031 10.001 12.0031H14.001L14.1035 12.008C14.6075 12.0594 15.0009 12.4855 15.001 13.0031V18.0031H19.001C19.5532 18.003 20.001 17.5553 20.001 17.0031V9.00307H21.001V9.00405H21.9961L22.0889 9.00014C23.0315 8.92124 23.3527 7.6524 22.5107 7.14663L12.5146 1.14272Z" fill="#094574"/>
</svg>
