<svg width="24" height="24" viewBox="0 0 24 24" fill="none" xmlns="http://www.w3.org/2000/svg">
<path d="M12 0C18.6274 0 24 5.37258 24 12C24 18.6274 18.6274 24 12 24C5.37258 24 0 18.6274 0 12C0 5.37258 5.37258 0 12 0ZM15.1846 16.3379C14.1704 16.4423 13.1026 16.5 12 16.5C10.897 16.5 9.82895 16.4424 8.81445 16.3379C9.03342 17.7855 9.35659 19.0742 9.75391 20.1338C10.1365 21.154 10.5687 21.9104 10.9971 22.3936C11.4263 22.8777 11.7674 23 12 23C12.2326 23 12.5737 22.8777 13.0029 22.3936C13.4313 21.9104 13.8635 21.154 14.2461 20.1338C14.6434 19.0742 14.9656 17.7855 15.1846 16.3379ZM1.1748 13.9434C1.9802 18.4599 5.53928 22.0184 10.0557 22.8242C9.01388 21.4908 8.19491 19.1197 7.78613 16.2129C4.87908 15.804 2.50784 14.9854 1.1748 13.9434ZM22.8242 13.9434C21.4909 14.9853 19.1199 15.8041 16.2129 16.2129C15.8041 19.1199 14.9853 21.4909 13.9434 22.8242C18.4601 22.0187 22.0187 18.4601 22.8242 13.9434ZM12 8.5C10.8407 8.5 9.72668 8.5639 8.68066 8.68066C8.5639 9.72668 8.5 10.8407 8.5 12C8.5 13.1589 8.56396 14.2726 8.68066 15.3184C9.72671 15.4351 10.8407 15.5 12 15.5C13.159 15.5 14.2726 15.4351 15.3184 15.3184C15.4351 14.2726 15.5 13.159 15.5 12C15.5 10.8407 15.4351 9.72671 15.3184 8.68066C14.2726 8.56396 13.1589 8.5 12 8.5ZM7.66113 8.81445C6.21387 9.03342 4.9256 9.35668 3.86621 9.75391C2.84603 10.1365 2.08956 10.5687 1.60645 10.9971C1.12233 11.4263 1 11.7674 1 12C1 12.2326 1.12233 12.5737 1.60645 13.0029C2.08956 13.4313 2.84603 13.8635 3.86621 14.2461C4.92557 14.6433 6.21393 14.9656 7.66113 15.1846C7.55671 14.1704 7.5 13.1026 7.5 12C7.5 10.897 7.55665 9.82892 7.66113 8.81445ZM10.0557 1.1748C5.53951 1.98053 1.98053 5.53951 1.1748 10.0557C2.50795 9.01377 4.87936 8.19502 7.78613 7.78613C8.19502 4.87936 9.01377 2.50795 10.0557 1.1748ZM13.9434 1.1748C14.9854 2.50784 15.804 4.87908 16.2129 7.78613C19.1197 8.19491 21.4908 9.01388 22.8242 10.0557C22.0184 5.53928 18.4599 1.9802 13.9434 1.1748ZM12 1C11.7674 1 11.4263 1.12233 10.9971 1.60645C10.5687 2.08956 10.1365 2.84603 9.75391 3.86621C9.35668 4.9256 9.03342 6.21387 8.81445 7.66113C9.82892 7.55665 10.897 7.5 12 7.5C13.1026 7.5 14.1704 7.55671 15.1846 7.66113C14.9656 6.21393 14.6433 4.92557 14.2461 3.86621C13.8635 2.84603 13.4313 2.08956 13.0029 1.60645C12.5737 1.12233 12.2326 1 12 1ZM16.5 12C16.5 13.1026 16.4423 14.1704 16.3379 15.1846C17.7855 14.9656 19.0742 14.6434 20.1338 14.2461C21.154 13.8635 21.9104 13.4313 22.3936 13.0029C22.8777 12.5737 23 12.2326 23 12C23 11.7674 22.8777 11.4263 22.3936 10.9971C21.9104 10.5687 21.154 10.1365 20.1338 9.75391C19.0742 9.35659 17.7855 9.03342 16.3379 8.81445C16.4424 9.82895 16.5 10.897 16.5 12Z" fill="#D9D9D9"/>
</svg>
