<svg width="24" height="24" viewBox="0 0 24 24" fill="none" xmlns="http://www.w3.org/2000/svg">
<path d="M12 0C18.6274 0 24 5.37258 24 12C24 18.6274 18.6274 24 12 24C5.37258 24 0 18.6274 0 12C0 5.37258 5.37258 0 12 0ZM12 1C5.92487 1 1 5.92487 1 12C1 18.0751 5.92487 23 12 23C18.0751 23 23 18.0751 23 12C23 5.92487 18.0751 1 12 1ZM12 4.5C14.4851 4.50018 16.5 6.51483 16.5 9V13.9102L20.0205 16.5781C20.7843 17.157 20.3752 18.3746 19.417 18.375H13.4502C13.2835 19.0215 12.6986 19.4998 12 19.5C11.3014 19.4998 10.7155 19.0216 10.5488 18.375H4.58301C3.62494 18.3747 3.21529 17.1571 3.97852 16.5781L7.5 13.9092V9C7.5 6.51483 9.51487 4.50018 12 4.5Z" fill="#D9D9D9"/>
</svg>
