<svg width="17" height="22" viewBox="0 0 17 22" fill="none" xmlns="http://www.w3.org/2000/svg">
<path d="M11 0C11.5523 0 12 0.447715 12 1C12.5523 1 13 1.44772 13 2H15C16.1046 2 17 2.89543 17 4V20L16.9893 20.2041C16.8938 21.1457 16.1457 21.8938 15.2041 21.9893L15 22H2L1.7959 21.9893C0.854346 21.8938 0.1062 21.1457 0.0107422 20.2041L0 20V4C2.57706e-07 2.89543 0.895431 2 2 2H4C4 1.44772 4.44772 1 5 1C5 0.447715 5.44772 2.41596e-08 6 0H11ZM2 3C1.44772 3 1 3.44772 1 4V20C1 20.5523 1.44772 21 2 21H15C15.5523 21 16 20.5523 16 20V4C16 3.44772 15.5523 3 15 3H13C13 3.55228 12.5523 4 12 4H5C4.44772 4 4 3.55228 4 3H2ZM13 15C13.5523 15 14 15.4477 14 16V17C14 17.5177 13.6067 17.9438 13.1025 17.9951L13 18H12L11.8975 17.9951C11.427 17.9472 11.0528 17.573 11.0049 17.1025L11 17V16C11 15.4477 11.4477 15 12 15H13ZM12 15.5C11.7239 15.5 11.5 15.7239 11.5 16V17C11.5 17.2761 11.7239 17.5 12 17.5H13C13.2761 17.5 13.5 17.2761 13.5 17V16C13.5 15.7239 13.2761 15.5 13 15.5H12ZM8.5 16C8.77614 16 9 16.2239 9 16.5C9 16.7761 8.77614 17 8.5 17H3.5C3.22386 17 3 16.7761 3 16.5C3 16.2239 3.22386 16 3.5 16H8.5ZM13 11C13.5523 11 14 11.4477 14 12V13C14 13.5177 13.6067 13.9438 13.1025 13.9951L13 14H12L11.8975 13.9951C11.427 13.9472 11.0528 13.573 11.0049 13.1025L11 13V12C11 11.4477 11.4477 11 12 11H13ZM12 11.5C11.7239 11.5 11.5 11.7239 11.5 12V13C11.5 13.2761 11.7239 13.5 12 13.5H13C13.2761 13.5 13.5 13.2761 13.5 13V12C13.5 11.7239 13.2761 11.5 13 11.5H12ZM8.5 12C8.77614 12 9 12.2239 9 12.5C9 12.7761 8.77614 13 8.5 13H3.5C3.22386 13 3 12.7761 3 12.5C3 12.2239 3.22386 12 3.5 12H8.5ZM13 7C13.5523 7 14 7.44772 14 8V9C14 9.51768 13.6067 9.94379 13.1025 9.99512L13 10H12L11.8975 9.99512C11.427 9.94722 11.0528 9.57297 11.0049 9.10254L11 9V8C11 7.44772 11.4477 7 12 7H13ZM12 7.5C11.7239 7.5 11.5 7.72386 11.5 8V9C11.5 9.27614 11.7239 9.5 12 9.5H13C13.2761 9.5 13.5 9.27614 13.5 9V8C13.5 7.72386 13.2761 7.5 13 7.5H12ZM8.5 8C8.77614 8 9 8.22386 9 8.5C9 8.77614 8.77614 9 8.5 9H3.5C3.22386 9 3 8.77614 3 8.5C3 8.22386 3.22386 8 3.5 8H8.5ZM7.5 1C7.22386 1 7 1.22386 7 1.5C7 1.77614 7.22386 2 7.5 2H9.5C9.77614 2 10 1.77614 10 1.5C10 1.22386 9.77614 1 9.5 1H7.5Z" fill="#094574"/>
</svg>
