<svg width="24" height="21" viewBox="0 0 24 21" fill="none" xmlns="http://www.w3.org/2000/svg">
<mask id="path-1-inside-1_1_96" fill="white">
<path d="M13.497 1.72681C15.8797 -0.575602 19.7423 -0.575593 22.125 1.72681L22.2129 1.81177C24.5956 4.11458 24.5956 7.84781 22.2129 10.1506L20.7158 11.5959L20.7168 11.5969L12 20.0217L3.28318 11.5969V11.5959L1.78708 10.1506C-0.595686 7.84781 -0.595702 4.11458 1.78708 1.81177L1.87497 1.72681C4.25768 -0.575599 8.12019 -0.575605 10.5029 1.72681L12 3.17309L13.497 1.72681Z"/>
</mask>
<path d="M13.497 1.72681L14.1918 2.446L14.1919 2.44593L13.497 1.72681ZM22.125 1.72681L22.82 1.00782L22.8199 1.00768L22.125 1.72681ZM22.2129 1.81177L21.5178 2.53075L21.5179 2.53084L22.2129 1.81177ZM22.2129 10.1506L22.9074 10.8701L22.9078 10.8697L22.2129 10.1506ZM20.7158 11.5959L20.0212 10.8765L19.289 11.5834L20.0087 12.3031L20.7158 11.5959ZM20.7168 11.5969L21.4117 12.316L22.1431 11.6091L21.4239 10.8898L20.7168 11.5969ZM12 20.0217L11.305 20.7408L12 21.4125L12.6949 20.7408L12 20.0217ZM3.28318 11.5969H2.28318V12.0211L2.58821 12.316L3.28318 11.5969ZM3.28318 11.5959H4.28318V11.1716L3.97797 10.8767L3.28318 11.5959ZM1.78708 10.1506L1.09214 10.8697L1.09229 10.8698L1.78708 10.1506ZM1.78708 1.81177L2.48202 2.53084L2.4821 2.53075L1.78708 1.81177ZM1.87497 1.72681L1.18009 1.00768L1.17995 1.00782L1.87497 1.72681ZM10.5029 1.72681L9.80802 2.44593L9.8081 2.446L10.5029 1.72681ZM12 3.17309L11.3052 3.89229L12 4.56353L12.6948 3.89229L12 3.17309ZM13.497 1.72681L14.1919 2.44593C16.1871 0.518027 19.4349 0.518031 21.4301 2.44593L22.125 1.72681L22.8199 1.00768C20.0496 -1.66922 15.5724 -1.66923 12.8022 1.00768L13.497 1.72681ZM22.125 1.72681L21.4299 2.44579L21.5178 2.53075L22.2129 1.81177L22.9079 1.09278L22.82 1.00782L22.125 1.72681ZM22.2129 1.81177L21.5179 2.53084C23.494 4.44055 23.4939 7.52184 21.5179 9.43157L22.2129 10.1506L22.9078 10.8697C25.6973 8.17379 25.6973 3.78861 22.9078 1.0927L22.2129 1.81177ZM22.2129 10.1506L21.5183 9.4312L20.0212 10.8765L20.7158 11.5959L21.4104 12.3154L22.9074 10.8701L22.2129 10.1506ZM20.7158 11.5959L20.0087 12.3031L20.0097 12.304L20.7168 11.5969L21.4239 10.8898L21.4229 10.8888L20.7158 11.5959ZM20.7168 11.5969L20.0218 10.8779L11.305 19.3027L12 20.0217L12.6949 20.7408L21.4117 12.316L20.7168 11.5969ZM12 20.0217L12.6949 19.3027L3.97814 10.8779L3.28318 11.5969L2.58821 12.316L11.305 20.7408L12 20.0217ZM3.28318 11.5969H4.28318V11.5959H3.28318H2.28318V11.5969H3.28318ZM3.28318 11.5959L3.97797 10.8767L2.48188 9.43143L1.78708 10.1506L1.09229 10.8698L2.58838 12.3152L3.28318 11.5959ZM1.78708 10.1506L2.48202 9.43157C0.505997 7.52184 0.50599 4.44054 2.48202 2.53084L1.78708 1.81177L1.09214 1.0927C-1.69739 3.78861 -1.69737 8.17379 1.09214 10.8697L1.78708 10.1506ZM1.78708 1.81177L2.4821 2.53075L2.56999 2.44579L1.87497 1.72681L1.17995 1.00782L1.09206 1.09278L1.78708 1.81177ZM1.87497 1.72681L2.56986 2.44593C4.565 0.518026 7.81288 0.518023 9.80802 2.44593L10.5029 1.72681L11.1978 1.00769C8.42751 -1.66923 3.95037 -1.66922 1.18009 1.00768L1.87497 1.72681ZM10.5029 1.72681L9.8081 2.446L11.3052 3.89229L12 3.17309L12.6948 2.4539L11.1977 1.00761L10.5029 1.72681ZM12 3.17309L12.6948 3.89229L14.1918 2.446L13.497 1.72681L12.8022 1.00761L11.3052 2.4539L12 3.17309Z" fill="#094574" mask="url(#path-1-inside-1_1_96)"/>
</svg>
