<svg width="17" height="12" viewBox="0 0 17 12" fill="none" xmlns="http://www.w3.org/2000/svg">
<path d="M5 0C7.76142 0 10 2.23858 10 5C10 5.76618 9.82657 6.49159 9.51855 7.14062L11.7803 8.27148C12.0756 8.03359 12.4941 7.97455 12.8555 8.15527L15.7773 9.61621C16.2712 9.86319 16.4714 10.4641 16.2246 10.958L16.1582 11.0908C15.9111 11.5846 15.3103 11.7851 14.8164 11.5381L11.8945 10.0762C11.5409 9.89934 11.338 9.54129 11.3418 9.1709L9 8V7.99902C8.08781 9.21373 6.63602 10 5 10C2.23858 10 0 7.76142 0 5C0 2.23858 2.23858 0 5 0ZM5 1C2.79086 1 1 2.79086 1 5C1 7.20914 2.79086 9 5 9C7.20914 9 9 7.20914 9 5C9 2.79086 7.20914 1 5 1Z" fill="#094574"/>
</svg>
