<svg width="24" height="17" viewBox="0 0 24 17" fill="none" xmlns="http://www.w3.org/2000/svg">
<path d="M23 15C23.5523 15 24 15.4477 24 16C24 16.5523 23.5523 17 23 17H1C0.447715 17 0 16.5523 0 16C0 15.4477 0.447715 15 1 15H23ZM23 12C23.5523 12 24 12.4477 24 13C24 13.5523 23.5523 14 23 14H1C0.447715 14 0 13.5523 0 13C0 12.4477 0.447715 12 1 12H23ZM23 9C23.5523 9 24 9.44772 24 10C24 10.5523 23.5523 11 23 11H1C0.447715 11 0 10.5523 0 10C0 9.44772 0.447715 9 1 9H23ZM23 6C23.5523 6 24 6.44772 24 7C24 7.55228 23.5523 8 23 8H1C0.447715 8 0 7.55228 0 7C0 6.44772 0.447715 6 1 6H23ZM23 3C23.5523 3 24 3.44772 24 4C24 4.55228 23.5523 5 23 5H1C0.447715 5 0 4.55228 0 4C0 3.44772 0.447715 3 1 3H23ZM23 0C23.5523 2.57702e-07 24 0.447715 24 1C24 1.55228 23.5523 2 23 2H1C0.447715 2 0 1.55228 0 1C0 0.447715 0.447715 1.61064e-08 1 0H23Z" fill="#094574"/>
</svg>
